<svg width="111" height="32" viewBox="0 0 111 32" fill="none" xmlns="http://www.w3.org/2000/svg">
<path fill-rule="evenodd" clip-rule="evenodd" d="M3.84833 5.95081H0.0129395V26.8467H3.84833V18.1553H11.9375V26.8467H15.7778V5.95081H11.9375V14.4634H3.84833V5.95081ZM24.7512 23.2132C26.5017 23.2132 27.9283 21.7898 27.9283 20.0406V11.0442H31.5643V20.0406C31.5643 23.7938 28.5075 26.8467 24.7512 26.8467C20.994 26.8467 17.937 23.7938 17.937 20.0406V11.0442H21.5743V20.0406C21.5743 21.7898 23 23.2132 24.7512 23.2132ZM41.7182 11.1496C39.914 11.1496 38.6546 11.6726 37.4383 12.8653V5.95081H33.7892V18.7652C33.7892 23.5618 37.2607 26.8467 41.1607 26.8467C45.4965 26.8467 49.2953 23.5032 49.2953 18.9983C49.2953 14.5506 45.7923 11.1496 41.7182 11.1496ZM37.4454 18.9983C37.4454 21.4112 39.3363 23.4742 41.8089 23.4742C43.9041 23.4742 45.796 21.4112 45.796 18.9983C45.796 16.585 43.9041 14.5214 41.8089 14.5214C39.3363 14.5214 37.4454 16.585 37.4454 18.9983ZM55.4242 12.0679C55.4242 10.2354 56.6464 9.65445 57.9845 9.65445C59.0617 9.65445 60.4872 10.4683 61.4175 11.4569L63.8029 8.66651C62.6107 7.06795 60.1961 5.96304 58.2174 5.96304C54.2597 5.96304 51.4081 8.25957 51.4081 12.0679C51.4081 16.1083 54.2549 17.105 56.6917 17.9581C58.5149 18.5964 60.1087 19.1543 60.1087 20.8467C60.1087 22.0662 58.916 23.1428 57.5492 23.1428C55.5925 23.1428 54.8367 22.2792 53.9733 21.2928L53.973 21.2924L53.9719 21.2911C53.8853 21.1922 53.7976 21.092 53.7076 20.9914L51.0592 23.7234C52.7479 25.7875 54.8422 26.8344 57.3449 26.8344C61.0982 26.8344 64.1245 24.5089 64.1245 20.8748C64.1245 16.1421 60.9606 15.1514 58.4487 14.3649C56.7952 13.8472 55.4242 13.4179 55.4242 12.0679ZM66.3595 19.0254C66.3595 14.2278 69.8314 10.9448 73.731 10.9448C78.0659 10.9448 81.8659 14.2874 81.8659 18.7929C81.8659 23.2407 78.3624 26.6413 74.2886 26.6413C72.4836 26.6413 71.2249 26.1174 70.0084 24.9255V31.8729H66.3595V19.0254ZM74.3794 23.2699C71.907 23.2699 70.016 21.2041 70.016 18.7929C70.016 16.3796 71.907 14.316 74.3794 14.316C76.4742 14.316 78.3663 16.3796 78.3663 18.7929C78.3663 21.2041 76.4742 23.2699 74.3794 23.2699ZM105.962 21.1195C105.962 22.5444 106.573 23.4742 108.726 23.4742C109.134 23.4742 109.6 23.4452 110.007 23.4171L109.105 26.7306C108.755 26.8166 108.115 26.8467 107.649 26.8467C104.537 26.8467 102.268 25.1895 102.268 21.9044V9.05606L105.962 7.39955V11.6149H109.308V14.812H105.962V21.1195Z" fill="#64626A"/>
<path fill-rule="evenodd" clip-rule="evenodd" d="M96.1891 12.1059C97.4193 12.8316 98.4033 13.7955 99.1028 14.9978C99.7901 16.1914 100.117 17.4942 100.117 18.9062V18.9779C100.117 20.4134 99.7106 21.7181 98.972 22.899C98.2372 24.0766 97.2646 24.9991 96.022 25.6737C94.8427 26.312 93.5882 26.6241 92.2583 26.6241H92.0379C90.835 26.6241 89.7358 26.362 88.74 25.9319C88.2352 25.714 87.7655 25.4614 87.3307 25.1614L84.1589 28.3304C84.2337 28.5686 84.2734 28.8193 84.2734 29.0762C84.2742 29.4026 84.2103 29.726 84.0853 30.0276C83.9603 30.3292 83.7767 30.6031 83.5451 30.8334C83.3146 31.065 83.0403 31.2486 82.7383 31.3737C82.4362 31.4987 82.1123 31.5627 81.7853 31.5618C81.4585 31.5627 81.1347 31.4988 80.8327 31.3737C80.5307 31.2487 80.2566 31.065 80.0262 30.8334C79.5561 30.364 79.2972 29.7401 79.297 29.0762C79.2959 28.7497 79.3597 28.4262 79.4846 28.1244C79.6096 27.8227 79.7932 27.5487 80.0249 27.3184C80.3595 26.9823 80.784 26.7496 81.2475 26.648C81.711 26.5465 82.194 26.5804 82.6387 26.7458L85.7073 23.6727C85.1996 23.0471 84.7897 22.3551 84.5093 21.594C84.1909 20.7224 84.004 19.7946 84.004 18.8118V18.5197C84.004 17.1197 84.455 15.8362 85.193 14.6697C85.5571 14.0975 86.0124 13.5875 86.5012 13.1391L77.2551 6.48393L76.5823 5.97397C76.098 6.26543 75.5368 6.44272 74.9301 6.44272C73.1514 6.44272 71.7107 5.00256 71.7107 3.2265C71.7107 1.45023 73.1499 0.010498 74.9286 0.010498C76.7073 0.010498 78.1472 1.45023 78.1472 3.2265C78.1472 3.52269 78.089 3.80342 78.0133 4.07579C80.4514 5.92356 84.2121 8.77751 86.5904 10.5824C87.3224 11.1379 87.9235 11.5941 88.3147 11.8909C89.1285 11.4796 90.0197 11.212 90.879 11.0879V7.26582C89.8048 6.81016 89.1766 5.80162 89.1766 4.62502C89.1766 3.02131 90.4865 1.72174 92.0918 1.72174C93.6958 1.72174 94.9832 3.02131 94.9832 4.62502C94.9832 5.80162 94.3165 6.81016 93.2423 7.26582V11.0862C94.3165 11.232 95.2698 11.5713 96.1891 12.1059ZM92.2583 23.19C93.377 23.19 94.3666 22.6013 95.2275 21.6455C95.9771 20.822 96.3517 19.9148 96.3517 18.9352C96.3517 18.7884 96.3457 18.6347 96.3339 18.4847C96.2587 17.7629 96.025 17.1003 95.632 16.4861C95.2275 15.872 94.7056 15.4052 94.0669 15.0635C93.44 14.7431 92.7757 14.6048 92.074 14.6048H92.002C91.2281 14.6048 90.5333 14.815 89.8828 15.2434C89.2202 15.6748 88.722 16.2174 88.3531 16.9151C88.0081 17.5534 87.8712 18.2293 87.8712 18.9421V19.1623C87.8712 19.8873 88.1118 20.5711 88.5553 21.1974C88.9843 21.8355 89.5085 22.3394 90.1982 22.6927C90.8101 23.0136 91.435 23.19 92.074 23.19H92.2583Z" fill="#64626A"/>
</svg>
