<svg width="38" height="46" viewBox="0 0 38 46" fill="none" xmlns="http://www.w3.org/2000/svg">
<path fill-rule="evenodd" clip-rule="evenodd" d="M26.2182 16.4427L34.7035 7.95737C36.047 6.61387 36.047 4.35113 34.7035 3.00763C33.36 1.66412 31.0973 1.66412 29.7538 3.00763L15.9652 16.7962C15.2581 17.5033 14.1267 17.3619 13.4196 16.6548C13.0339 16.2691 12.882 15.7665 12.9638 15.2533L12.9953 15.0992C14.1267 10.8565 11.6518 6.54316 7.40919 5.41179L2.67158 23.1602C1.28622 28.7016 1.86864 34.9894 6.08055 39.4313L6.34853 39.7065C12.4296 45.7876 22.3291 45.7876 28.4103 39.7065L33.6429 34.4739C33.6429 27.6857 31.0266 21.251 26.2182 16.4427Z" fill="white"/>
<path fill-rule="evenodd" clip-rule="evenodd" d="M14.9046 15.7355L28.6932 1.94697C30.6225 0.0176777 33.835 0.0176777 35.7643 1.94697C37.6936 3.87626 37.6936 7.08875 35.7643 9.01803L28.3091 16.472L28.5767 16.7743C32.7201 21.5462 35.0287 27.5976 35.1388 33.9935L35.1429 34.4739C35.1429 34.8717 34.9849 35.2532 34.7036 35.5345L29.471 40.7671C22.8041 47.434 11.9549 47.434 5.27398 40.753L4.99217 40.4634C0.71721 35.955 -0.439213 29.419 1.22241 22.7733L5.96002 5.02494C6.17364 4.22467 6.99546 3.74902 7.79577 3.96244C12.8354 5.30633 15.7905 10.439 14.465 15.3999L14.4452 15.4895C14.4372 15.5394 14.4426 15.5564 14.4803 15.5941C14.6643 15.7781 14.8479 15.7922 14.9046 15.7355ZM33.6429 6.89671C34.4007 6.139 34.4007 4.826 33.6429 4.06829C32.8852 3.31057 31.5722 3.31057 30.8145 4.06829L17.0259 17.8569C15.7189 19.1639 13.6482 19.0046 12.359 17.7154C11.6378 16.9942 11.3241 16.0114 11.4943 14.9525L11.5461 14.7127C12.3227 11.8003 11.012 8.86108 8.51673 7.46545L8.42609 7.417L4.12688 23.524C2.73382 29.0962 3.62906 34.4616 6.92166 38.1315L7.15527 38.3848L7.40928 38.6458C12.9046 44.1411 21.8544 44.1411 27.3497 38.6458L32.1341 33.861L32.1261 33.5591C31.9077 27.6318 29.5694 22.0783 25.476 17.8277L25.1577 17.5033C24.5719 16.9175 24.5719 15.9678 25.1577 15.382L33.6429 6.89671Z" fill="#3B3A40"/>
</svg>
