<svg width="48" height="41" viewBox="0 0 48 41" fill="none" xmlns="http://www.w3.org/2000/svg">
<path fill-rule="evenodd" clip-rule="evenodd" d="M2 0V31C2 35.4183 5.58172 39 10 39H48" fill="white"/>
<path d="M3.5 0V31C3.5 34.5118 6.285 37.3731 9.76687 37.4959L10 37.5H48V40.5H10C4.84376 40.5 0.646961 36.3921 0.503776 31.2705L0.5 31V0H3.5Z" fill="#3B3A40"/>
<path d="M44.7801 3.18994L47.3051 4.80995L33.884 25.7283C33.4023 26.4792 32.3855 26.6385 31.6994 26.1016L31.5882 26.0056L22.123 17.0099L13.2778 29.851L10.8074 28.1489L20.6495 13.8632C21.1434 13.1463 22.1319 13.0064 22.8031 13.528L22.918 13.6269L32.339 22.5809L44.7801 3.18994Z" fill="#3B3A40"/>
</svg>
