<svg width="50" height="50" viewBox="0 0 50 50" fill="none" xmlns="http://www.w3.org/2000/svg">
<path fill-rule="evenodd" clip-rule="evenodd" d="M7.3046 19.6123C3.20321 30.4428 8.67173 42.6402 19.6088 46.6359C30.5458 50.6317 42.6397 45.1638 46.6359 34.3333C50.6321 23.5029 45.1636 11.3054 34.3317 7.3097C32.0181 6.36335 29.4942 5.94275 26.9702 5.94275C25.9991 5.94275 24.975 6.04886 23.9731 6.2234C23.5645 6.29457 23.9731 24.9999 23.9731 24.9999L7.3046 19.6123Z" fill="white"/>
<path d="M26.9704 4.44275C29.7809 4.44275 32.4766 4.9302 34.851 5.9024C46.4291 10.1734 52.338 23.2132 48.0433 34.8526C43.765 46.4476 30.8188 52.3283 19.0942 48.0449C7.52218 43.8172 1.61115 30.9857 5.77277 19.4308L5.90197 19.0811L8.70754 20.1435C4.88771 30.2305 10.0088 41.5317 20.1237 45.227C30.3045 48.9465 41.5261 43.8492 45.2288 33.8141C48.9529 23.7211 43.828 12.4115 33.764 8.69805C31.7168 7.86066 29.4057 7.44275 26.9704 7.44275C26.2705 7.44275 25.508 7.50486 24.712 7.62334L24.2307 7.70114L23.7158 4.74565C24.8473 4.54854 25.9472 4.44275 26.9704 4.44275Z" fill="#3B3A40"/>
<path fill-rule="evenodd" clip-rule="evenodd" d="M9.18126 5.61438C13.4497 2.30634 18.6742 0.5 24.0001 0.5C24.8285 0.5 25.5001 1.17157 25.5001 2V25C25.5001 25.9891 24.5597 26.7074 23.6054 26.4471L1.60544 20.4471C0.810113 20.2302 0.338876 19.4122 0.550275 18.6153C1.92421 13.4367 4.98943 8.83885 9.18126 5.61438ZM22.5001 23.035V3.555L22.1432 3.58381C18.1367 3.94567 14.2642 5.47054 11.0147 7.98894C7.83203 10.4371 5.38839 13.7925 4.00955 17.598L3.88312 17.958L22.5001 23.035Z" fill="#3B3A40"/>
</svg>
