<svg width="42" height="50" viewBox="0 0 42 50" fill="none" xmlns="http://www.w3.org/2000/svg">
<path fill-rule="evenodd" clip-rule="evenodd" d="M21 48C21 48 2 41.2 2 21.6V5.5L21 2L40 5.5V21.6C40 41.4 21 48 21 48Z" fill="white" stroke="#3B3A40" stroke-width="3"/>
<path fill-rule="evenodd" clip-rule="evenodd" d="M21 0.474731L41.5 4.25105V21.6C41.5 30.7299 37.7297 37.9332 31.4835 43.3575C29.3106 45.2445 26.9871 46.778 24.6619 47.9896C23.2572 48.7215 22.1516 49.1879 21.4922 49.4169L20.9926 49.5905L20.3468 49.3581C19.7802 49.1459 18.9448 48.7837 17.9117 48.259L17.329 47.9567C15.0057 46.7258 12.6842 45.1764 10.5131 43.2796C4.26965 37.8248 0.5 30.6426 0.5 21.6V4.25105L21 0.474731ZM38.5 6.74897L21 3.52497L3.5 6.74897V21.6C3.5 29.5419 6.71979 35.8385 12.145 40.7173L12.4869 41.0204C14.4721 42.7548 16.6036 44.1773 18.7335 45.3058C19.4765 45.6994 20.1642 46.0274 20.778 46.2923L21.006 46.389L21.0865 46.3571L21.546 46.1611C22.077 45.9282 22.6571 45.6514 23.2756 45.3291C25.4035 44.2204 27.5331 42.8148 29.5165 41.0924C35.1453 36.2042 38.5 29.795 38.5 21.6V6.74897Z" fill="#3B3A40"/>
<path fill-rule="evenodd" clip-rule="evenodd" d="M10.5132 25L20.8659 33.8523L40.1063 11.8523" fill="#FFEDB6"/>
<path d="M38.9771 10.8649L41.2354 12.8398L21.9949 34.8398C21.4877 35.4198 20.6314 35.5159 20.0116 35.0855L19.891 34.9924L9.53833 26.1401L11.488 23.86L20.712 31.748L38.9771 10.8649Z" fill="#3B3A40"/>
</svg>
