<svg width="35" height="35" viewBox="0 0 35 35" fill="none" xmlns="http://www.w3.org/2000/svg">
<path fill-rule="evenodd" clip-rule="evenodd" d="M10.7763 13.7044L13.6649 10.8159L33.3734 27.696L27.6564 33.413L10.7763 13.7044Z" fill="white"/>
<path fill-rule="evenodd" clip-rule="evenodd" d="M13.9362 5.44681L13.9362 0L11.9362 0L11.9362 5.44681L13.9362 5.44681ZM23.3794 3.90711L21.9652 2.49289L18.1525 6.30566L19.5667 7.71987L23.3794 3.90711ZM14.2124 9.97896C13.8216 9.72276 13.2964 9.77016 12.9578 10.1088L10.0692 12.9973L9.98408 13.0941C9.69852 13.4639 9.7053 13.9913 10.0168 14.3549L26.8969 34.0635L26.9825 34.1519C27.3711 34.5075 27.9809 34.5027 28.3635 34.1201L34.0805 28.4031L34.1621 28.311C34.4867 27.8961 34.4348 27.2884 34.0239 26.9365L14.3154 10.0564L14.2124 9.97896ZM16.392 18.724L18.684 16.432L31.9022 27.7525L27.7126 31.9421L16.392 18.724ZM6.30566 18.1525L7.71987 19.5667L3.90711 23.3794L2.49289 21.9652L6.30566 18.1525ZM12.1378 13.7567L13.7168 12.1778L17.16 15.127L15.087 17.2L12.1378 13.7567ZM5.44681 11.9362L5.44681 13.9362L0 13.9362L0 11.9362L5.44681 11.9362ZM3.90711 2.49289L7.71987 6.30566L6.30566 7.71987L2.49289 3.90711L3.90711 2.49289Z" fill="black"/>
</svg>
