<svg width="23" height="23" viewBox="0 0 23 23" fill="none" xmlns="http://www.w3.org/2000/svg">
<path fill-rule="evenodd" clip-rule="evenodd" d="M19.7021 8.86808L21.5745 5.62979L20.7234 4.77872L18.4681 7.05106L16.6553 5.24255L18.9191 2.97872L17.9404 2L14.766 3.96596C13.9913 4.44736 13.5322 5.30543 13.5617 6.21702L13.6085 7.67234L2.60425 18.6638C2.28333 18.9833 2.10291 19.4174 2.10291 19.8702C2.10291 20.323 2.28333 20.7572 2.60425 21.0766V21.0766C2.92385 21.3988 3.35891 21.5801 3.81276 21.5801C4.26661 21.5801 4.70167 21.3988 5.02127 21.0766L16.0425 10.0851L17.3702 10.1447C18.3252 10.1893 19.2251 9.69665 19.7021 8.86808Z" stroke="black" stroke-width="2"/>
<path fill-rule="evenodd" clip-rule="evenodd" d="M18.2936 21.0128L14.0851 16.8511L16.8042 14.1362L21.0085 18.2979C21.3697 18.6573 21.5728 19.1458 21.5728 19.6554C21.5728 20.1649 21.3697 20.6534 21.0085 21.0128V21.0128C20.258 21.7605 19.0441 21.7605 18.2936 21.0128V21.0128Z" stroke="black" stroke-width="2"/>
<path fill-rule="evenodd" clip-rule="evenodd" d="M11.366 9.91496L9.85532 11.4256L5.4766 7.05113L3.05532 6.44687L2 2.97879L2.90638 2.07666L6.53191 2.97879L6.98723 5.54475L11.366 9.91496V9.91496Z" stroke="black" stroke-width="2"/>
<path fill-rule="evenodd" clip-rule="evenodd" d="M14.6894 16.2511L12.2723 13.8383L13.9362 12.1787L16.3532 14.5915L14.6894 16.2511V16.2511Z" stroke="black" stroke-width="2"/>
</svg>
