<svg width="28" height="34" viewBox="0 0 28 34" fill="none" xmlns="http://www.w3.org/2000/svg">
<path fill-rule="evenodd" clip-rule="evenodd" d="M14.0616 0.00189896L14.1841 0.0170906L27.1841 2.45187C27.6177 2.53309 27.942 2.88691 27.993 3.31603L28 3.43478V14.6348C28 20.9685 25.4271 25.9663 21.1619 29.7322C19.677 31.0433 18.0888 32.109 16.4994 32.951L15.9876 33.2148C15.4981 33.4598 15.0776 33.6489 14.7431 33.7856L14.5832 33.8495L14.333 33.9429C14.1145 34.0201 13.8759 34.019 13.6581 33.9397L13.3776 33.8315C13.0669 33.7058 12.6679 33.5273 12.1976 33.293L11.9566 33.1712L11.4945 32.9282C9.90642 32.0727 8.31959 30.996 6.83588 29.6781C2.674 25.9811 0.123458 21.1443 0.00436308 15.0807L0 14.6348V3.43478C0 2.9936 0.288085 2.60978 0.70048 2.48063L0.81591 2.45187L13.8159 0.0170906C13.897 0.00189896 13.9795 -0.00316493 14.0616 0.00189896ZM14 2.017L2 4.264V14.6348C2 19.9904 4.06333 24.2731 7.55935 27.6248L7.8625 27.9099L8.16412 28.1828C9.52416 29.3909 10.9842 30.3816 12.443 31.1674C12.8501 31.3867 13.2329 31.5767 13.585 31.7384L14.004 31.924L14.4223 31.7435C14.774 31.5854 15.1565 31.3992 15.5631 31.1837C17.0206 30.4116 18.4793 29.4328 19.8381 28.233C23.5963 24.9147 25.8778 20.5879 25.9952 15.0837L26 14.6348V4.264L14 2.017ZM21.4696 11.6114L19.887 10.3886L13.959 18.06L9.69273 13.9625L8.30727 15.4049L13.3769 20.2745L13.4726 20.3557C13.9029 20.677 14.5233 20.6017 14.8609 20.1647L21.4696 11.6114Z" fill="#3B3A40"/>
</svg>
