<svg width="34" height="31" viewBox="0 0 34 31" fill="none" xmlns="http://www.w3.org/2000/svg">
<path fill-rule="evenodd" clip-rule="evenodd" d="M26.964 9.097L26.9384 8.90562C26.1867 3.87708 21.7919 0.132805 16.6105 0.348695L16.3331 0.363963C10.8983 0.735967 6.72993 5.32183 6.95739 10.7808L6.957 11.13L6.67567 11.1344C3.12934 11.2543 0.240823 14.05 0.00221484 17.6291L0 23.9565L0.00672773 24.0731C0.0644928 24.5705 0.487164 24.9565 1 24.9565H11.4348V22.9565L2 22.956V17.6957L2.01952 17.4788C2.29472 15.037 4.38948 13.1304 6.91304 13.1304H7.95652L8.07314 13.1237C8.57048 13.0659 8.95652 12.6433 8.95652 12.1304V10.7391L8.94991 10.4907C8.89874 6.11705 12.3066 2.52976 16.6938 2.34696C21.1377 2.1618 24.8581 5.61512 25.0443 10.0851C25.0667 10.6207 25.5074 11.0435 26.0435 11.0435C29.3173 11.0435 32 13.7262 32 17C32 20.2738 29.3173 22.9565 26.0435 22.9565H22.5652V24.9565H26.0435L26.2904 24.9527C30.5556 24.8212 34 21.2958 34 17L33.9962 16.753C33.8748 12.816 30.8615 9.57825 27.0199 9.10343L26.964 9.097ZM17.7071 13.1625L17.6129 13.0793C17.2206 12.7742 16.6534 12.802 16.2929 13.1625L10.7277 18.7277L12.1419 20.1419L15.9997 16.2826L16 30.913H18L17.9997 16.2826L21.8581 20.1419L23.2723 18.7277L17.7071 13.1625Z" fill="#3B3A40"/>
</svg>
