<svg width="34" height="34" viewBox="0 0 34 34" fill="none" xmlns="http://www.w3.org/2000/svg">
<path fill-rule="evenodd" clip-rule="evenodd" d="M34 17C34 7.61116 26.3888 0 17 0C7.61116 0 0 7.61116 0 17C0 26.3888 7.61116 34 17 34C26.3888 34 34 26.3888 34 17ZM2 17C2 8.71573 8.71573 2 17 2C25.2843 2 32 8.71573 32 17C32 25.2843 25.2843 32 17 32C8.71573 32 2 25.2843 2 17ZM24.2929 8.29289L25.7071 9.70711L19.7071 15.7071L19.7642 15.8323C19.9161 16.1912 20 16.5858 20 17C20 18.6569 18.6569 20 17 20C16.5858 20 16.1912 19.9161 15.8323 19.7642L15.7071 19.7071L11.7071 23.7071L10.2929 22.2929L14.2929 18.2929L14.2358 18.1677C14.0839 17.8088 14 17.4142 14 17C14 15.3431 15.3431 14 17 14C17.4142 14 17.8088 14.0839 18.1677 14.2358L18.2929 14.2929L24.2929 8.29289ZM16 17C16 16.4477 16.4477 16 17 16C17.5523 16 18 16.4477 18 17C18 17.5523 17.5523 18 17 18C16.4477 18 16 17.5523 16 17Z" fill="#3B3A40"/>
</svg>
