<svg width="32" height="34" viewBox="0 0 32 34" fill="none" xmlns="http://www.w3.org/2000/svg">
<path fill-rule="evenodd" clip-rule="evenodd" d="M16.3043 0C18.9036 0 21.0957 2.42564 22.5166 6.20824C26.637 5.52941 29.9618 6.21949 31.2898 8.49613C32.6127 10.764 31.6008 13.8783 28.9922 17.0025C31.6289 20.1405 32.6473 23.2572 31.2819 25.5171C29.9166 27.777 26.6266 28.4515 22.5282 27.7627C21.107 31.5619 18.9103 34 16.3043 34C13.6972 34 11.4997 31.5598 10.0792 27.7577C5.94958 28.454 2.62546 27.782 1.25707 25.5171C-0.112267 23.2506 0.916024 20.1223 3.5678 16.9755C0.964943 13.8596 -0.0638344 10.7471 1.2492 8.49613C2.5793 6.21596 5.92203 5.54312 10.0772 6.24529C11.4982 2.44191 13.6963 0 16.3043 0ZM16.3017 25.8996L15.9956 26.0254C14.6501 26.5711 13.3292 27.0094 12.0615 27.3345C13.1781 30.2149 14.7187 32 16.3043 32C17.8891 32 19.4291 30.2165 20.5461 27.339C19.3775 27.0392 18.1625 26.642 16.9233 26.1522L16.3017 25.8996ZM4.79117 18.6412L4.93267 18.4664C6.00124 19.5382 7.24381 20.5941 8.6284 21.5977C8.81704 23.1015 9.09719 24.5229 9.45881 25.8292C6.26045 26.3308 3.81885 25.8897 2.9689 24.4829C2.16262 23.1483 2.89985 20.9934 4.79117 18.6412ZM27.6276 18.4932C26.5682 19.5535 25.3458 20.5932 23.982 21.5858C23.7928 23.0954 23.5118 24.5223 23.1496 25.8338C26.3144 26.3276 28.7234 25.8843 29.5701 24.4829C30.3933 23.1204 29.6076 20.9028 27.6276 18.4932ZM21.402 23.3019L21.7161 23.1086L21.5969 23.7123C21.4725 24.3084 21.3326 24.8816 21.179 25.4287C20.4265 25.2391 19.6453 25.0047 18.8435 24.7254C19.343 24.4719 19.843 24.2046 20.3424 23.9237C20.7018 23.7202 21.0551 23.5128 21.402 23.3019ZM10.8938 23.1145L10.9093 23.1981C11.0573 23.9784 11.2314 24.7224 11.4282 25.4234C12.1795 25.2349 12.9599 25.0014 13.7596 24.7238C13.2624 24.4704 12.7641 24.2038 12.2662 23.9237C11.7984 23.6606 11.3407 23.3906 10.8938 23.1145ZM15.9713 10.3835L16.2469 10.2595C17.1597 10.6619 18.0847 11.1168 19.0102 11.6242L19.356 11.8161L19.9288 12.1501C20.6843 12.5995 21.4062 13.0646 22.0913 13.5401C22.2017 14.6493 22.2608 15.8074 22.2608 17C22.2608 18.1969 22.2012 19.3591 22.09 20.4719C21.2355 21.0626 20.3232 21.6361 19.3593 22.182C18.3355 22.7579 17.3118 23.2698 16.3038 23.7182C15.2964 23.2702 14.2724 22.7575 13.2467 22.1806C12.2859 21.6402 11.3746 21.0699 10.5193 20.4809C10.4077 19.3653 10.3478 18.2001 10.3478 17C10.3478 15.7888 10.4088 14.613 10.5223 13.4886C11.357 12.9123 12.2459 12.3516 13.183 11.8161C14.1142 11.2839 15.0478 10.8064 15.9713 10.3835ZM8.39526 15.0835L8.17148 15.2675C7.48709 15.8363 6.85727 16.4105 6.2872 16.9817C6.9181 17.6177 7.62251 18.2567 8.39275 18.8863C8.36332 18.2667 8.34776 17.6372 8.34776 17C8.34776 16.3525 8.36382 15.713 8.39526 15.0835ZM24.2294 15.4399L24.2165 15.1427L24.6606 15.5142C25.2423 16.0104 25.7821 16.5096 26.2763 17.0062C25.6585 17.6291 24.9694 18.255 24.2154 18.8736C24.2455 18.2579 24.2608 17.6328 24.2608 17C24.2608 16.4743 24.2502 15.9539 24.2294 15.4399ZM16.3043 15.6087C17.0727 15.6087 17.6956 16.2316 17.6956 17C17.6956 17.7684 17.0727 18.3913 16.3043 18.3913C15.5359 18.3913 14.913 17.7684 14.913 17C14.913 16.2316 15.5359 15.6087 16.3043 15.6087ZM23.9833 12.4273C23.7931 10.9017 23.5087 9.46045 23.1412 8.13687C26.3173 7.65168 28.7445 8.10198 29.5622 9.50387C30.3683 10.8856 29.589 13.1101 27.6248 15.5156C26.5709 14.463 25.3471 13.4229 23.9833 12.4273ZM2.97676 9.50387C2.18026 10.8693 2.97509 13.0911 4.93759 15.4903C6.00658 14.4267 7.24797 13.376 8.6323 12.3715C8.81274 10.9436 9.07569 9.59048 9.41174 8.33951L9.45636 8.17422C6.24331 7.66737 3.79406 8.10279 2.97676 9.50387ZM20.9781 8.5843L21.169 8.53629C21.3785 9.27755 21.5627 10.0672 21.7163 10.8974C21.3822 10.6886 21.0419 10.4829 20.6957 10.2805L20.3424 10.0763L19.8251 9.79032C19.48 9.60296 19.1347 9.42214 18.7894 9.24806C19.5377 8.98784 20.2697 8.76654 20.9781 8.5843ZM11.4262 8.58045C11.2257 9.29948 11.0496 10.0554 10.9005 10.8486C11.321 10.5873 11.7514 10.3307 12.1908 10.0796C12.6938 9.79214 13.1983 9.51886 13.7027 9.26002C13.1176 9.05905 12.5431 8.88127 11.9823 8.72694L11.4262 8.58045ZM12.0594 6.66895C13.1766 3.78677 14.718 2 16.3043 2C17.8828 2 19.4167 3.76917 20.5329 6.62606C19.1513 6.97673 17.7081 7.46272 16.2413 8.07733C14.8114 7.48578 13.4059 7.0141 12.0594 6.66895Z" fill="black"/>
</svg>
