<svg width="124" height="32" viewBox="0 0 124 32" fill="none" xmlns="http://www.w3.org/2000/svg">
<path d="M40.1982 24.475L41.7345 20.875C43.3947 22.125 45.6 22.775 47.7805 22.775C49.3912 22.775 50.4071 22.15 50.4071 21.2C50.3823 18.55 40.7682 20.625 40.6938 13.975C40.669 10.6 43.6425 8 47.8549 8C50.3575 8 52.8602 8.625 54.6443 10.05L53.2071 13.725C51.5717 12.675 49.5398 11.925 47.6071 11.925C46.2938 11.925 45.4266 12.55 45.4266 13.35C45.4513 15.95 55.1398 14.525 55.2389 20.875C55.2389 24.325 52.3398 26.75 48.177 26.75C45.1292 26.75 42.3292 26.025 40.1982 24.475Z" fill="#64626A"/>
<path d="M99.147 19.575C98.3789 20.925 96.9417 21.85 95.2815 21.85C92.8284 21.85 90.8461 19.85 90.8461 17.375C90.8461 14.9 92.8284 12.9 95.2815 12.9C96.9417 12.9 98.3789 13.825 99.147 15.175L103.384 12.8C101.798 9.95 98.7506 8 95.2815 8C90.1523 8 85.9895 12.2 85.9895 17.375C85.9895 22.55 90.1523 26.75 95.2815 26.75C98.7753 26.75 101.798 24.825 103.384 21.95L99.147 19.575Z" fill="#64626A"/>
<rect x="57.3699" y="0.224976" width="5.30265" height="26.175" fill="#64626A"/>
<path d="M105.466 0.224976V26.4H110.768V18.55L117.062 26.4H123.851L115.848 17.075L123.257 8.37498H116.765L110.768 15.6V0.224976H105.466Z" fill="#64626A"/>
<path fill-rule="evenodd" clip-rule="evenodd" d="M78.4319 10.5V8.375H83.7346V26.375H78.4319V24.25C77.5647 25.725 75.4089 26.75 73.154 26.75C68.4956 26.75 64.8284 22.55 64.8284 17.35C64.8284 12.15 68.4956 8 73.154 8C75.4089 8 77.5647 9.025 78.4319 10.5ZM74.2939 21.85C76.0779 21.85 77.6638 20.9 78.4319 19.625V15.2C77.6638 13.9 76.0779 12.9 74.2939 12.9C71.8408 12.9 69.8585 14.9 69.8585 17.375C69.8585 19.85 71.8408 21.85 74.2939 21.85Z" fill="#64626A"/>
<path d="M6.58391 19.7268C6.58391 21.5404 5.11807 23.0063 3.30441 23.0063C1.49074 23.0063 0.0249023 21.5404 0.0249023 19.7268C0.0249023 17.9131 1.49074 16.4473 3.30441 16.4473H6.58391V19.7268Z" fill="#64626A"/>
<path d="M8.22363 19.7268C8.22363 17.9131 9.68947 16.4473 11.5031 16.4473C13.3168 16.4473 14.7826 17.9131 14.7826 19.7268V27.9255C14.7826 29.7392 13.3168 31.205 11.5031 31.205C9.68947 31.205 8.22363 29.7392 8.22363 27.9255V19.7268H8.22363Z" fill="#64626A"/>
<path d="M11.5031 6.55901C9.68947 6.55901 8.22363 5.09317 8.22363 3.2795C8.22363 1.46584 9.68947 0 11.5031 0C13.3168 0 14.7826 1.46584 14.7826 3.2795V6.55901H11.5031Z" fill="#64626A"/>
<path d="M11.5031 8.22363C13.3168 8.22363 14.7826 9.68947 14.7826 11.5031C14.7826 13.3168 13.3168 14.7826 11.5031 14.7826H3.2795C1.46584 14.7826 0 13.3168 0 11.5031C0 9.68947 1.46584 8.22363 3.2795 8.22363H11.5031Z" fill="#64626A"/>
<path d="M24.646 11.5031C24.646 9.68947 26.1118 8.22363 27.9255 8.22363C29.7392 8.22363 31.205 9.68947 31.205 11.5031C31.205 13.3168 29.7392 14.7826 27.9255 14.7826H24.646V11.5031Z" fill="#64626A"/>
<path d="M23.0063 11.5031C23.0063 13.3168 21.5404 14.7826 19.7268 14.7826C17.9131 14.7826 16.4473 13.3168 16.4473 11.5031V3.2795C16.4473 1.46584 17.9131 0 19.7268 0C21.5404 0 23.0063 1.46584 23.0063 3.2795V11.5031Z" fill="#64626A"/>
<path d="M19.7268 24.646C21.5404 24.646 23.0063 26.1118 23.0063 27.9255C23.0063 29.7392 21.5404 31.205 19.7268 31.205C17.9131 31.205 16.4473 29.7392 16.4473 27.9255V24.646H19.7268Z" fill="#64626A"/>
<path d="M19.7268 23.0063C17.9131 23.0063 16.4473 21.5404 16.4473 19.7268C16.4473 17.9131 17.9131 16.4473 19.7268 16.4473H27.9504C29.764 16.4473 31.2299 17.9131 31.2299 19.7268C31.2299 21.5404 29.764 23.0063 27.9504 23.0063H19.7268Z" fill="#64626A"/>
</svg>
