<svg width="128" height="32" viewBox="0 0 128 32" fill="none" xmlns="http://www.w3.org/2000/svg">
<path fill-rule="evenodd" clip-rule="evenodd" d="M60.6194 12.4C61.6023 11.6358 62.7999 11.127 64.0558 11.0909C65.5665 10.9726 67.0816 11.4944 68.2557 12.4364C68.6971 12.7301 69.003 13.1956 69.3095 13.6621C69.376 13.7632 69.4424 13.8643 69.5103 13.9637V11.4182H71.6376V30.5455H69.5103C69.5109 29.3706 69.5106 28.1926 69.5103 27.0157C69.51 25.8395 69.5097 24.6644 69.5103 23.4946C69.4851 23.1655 69.16 23.5879 69.183 23.6909C69.1531 23.7277 69.1229 23.7652 69.0923 23.8031C68.7969 24.1697 68.4679 24.5779 68.1103 24.8C66.5329 26.0196 64.3462 26.3274 62.459 25.7284C61.8702 25.5754 61.3127 25.2205 60.8159 24.9043C60.7304 24.8498 60.6466 24.7965 60.5648 24.7455C59.8782 24.1791 59.413 23.516 58.9787 22.7516C57.8633 20.6023 57.7395 17.9957 58.4367 15.6935C58.6777 14.8695 59.1048 14.132 59.6083 13.4417C59.8398 13.0659 60.2679 12.6511 60.6194 12.4ZM67.583 13.9091C66.8859 13.2913 65.7778 13.0157 64.8012 13.0182C64.3608 13.0057 63.9162 13.0504 63.4957 13.1862C62.63 13.3908 61.9233 13.9683 61.383 14.6364C60.5806 15.7 60.3295 17.0712 60.2773 18.3783C60.2584 19.8842 60.5537 21.5288 61.5888 22.6654C62.1447 23.324 62.8793 23.8192 63.7448 23.9677C65.0521 24.1957 66.5493 24.0478 67.583 23.1637C68.2852 22.6001 68.8212 21.8745 69.1 21.0157C69.7211 19.2399 69.6504 17.2067 68.855 15.4969C68.5548 14.8352 68.1388 14.3595 67.583 13.9091Z" fill="#64626A"/>
<path d="M48.4291 5.61819C46.8107 5.68299 45.1628 6.10737 43.8655 7.1091C43.5992 7.28588 43.3049 7.60497 43.1207 7.8823C42.3293 8.88211 41.9245 10.1815 42.0507 11.4581C42.096 12.3868 42.4388 13.2897 43.0655 13.9818C43.249 14.2583 43.6032 14.5722 43.8912 14.7535C45.5663 16.0553 47.7445 16.2971 49.7214 16.889C50.9558 17.2649 52.3848 17.52 53.1928 18.6182C53.877 19.4537 53.8578 20.7095 53.4837 21.6909C53.1636 22.4948 52.4651 23.0695 51.72 23.4727C50.1598 24.1477 48.3526 24.1039 46.7385 23.6519C45.5225 23.2797 44.4438 22.5571 43.6544 21.5551C43.4524 21.2259 43.2728 21.0138 42.9569 21.3942C42.478 21.7295 41.999 22.0647 41.52 22.4C41.9047 23.0041 42.359 23.5841 42.9019 24C43.8305 24.7103 44.8377 25.3384 45.98 25.6331C48.1173 26.2699 50.4897 26.2036 52.5564 25.3455C53.3906 24.9098 54.1873 24.4696 54.7774 23.7388C55.5406 22.8367 56.031 21.5714 56.0546 20.3384C56.1171 19.1547 55.7351 17.9541 54.9564 17.0546C54.8079 16.8206 54.5399 16.5814 54.2827 16.4319C53.8935 16.0863 53.4534 15.8697 52.9765 15.6116C50.8497 14.5477 48.4244 14.3181 46.252 13.3883C45.5866 13.0576 44.9204 12.5995 44.5746 11.9273C44.0573 10.7794 44.4604 9.32664 45.4733 8.59858C46.3581 7.88951 47.5729 7.68092 48.6946 7.67274C50.6423 7.65284 52.6172 8.50221 53.7928 10.0727C54.3746 9.63638 54.9564 9.20001 55.5382 8.76365C55.0279 8.05306 54.3899 7.50265 53.6916 7.03199C52.1501 6.01816 50.2729 5.52322 48.4291 5.61819Z" fill="#64626A"/>
<path d="M75.2278 20.6908C75.2301 21.9402 75.4837 23.2383 76.246 24.2545C76.5793 24.7963 77.2368 25.227 77.8212 25.546C79.348 26.2525 81.181 26.1445 82.6929 25.4519C83.3815 25.0792 84.0429 24.6155 84.4824 24.0181C84.6838 23.8322 84.9109 23.3044 85.0278 23.2763C85.0278 24.0811 85.0278 24.886 85.0278 25.6908C85.7369 25.6908 86.446 25.6908 87.1551 25.6908C87.1551 20.9332 87.1551 16.1757 87.1551 11.4181C86.446 11.4181 85.7369 11.4181 85.0278 11.4181C85.013 14.3331 85.0622 17.2497 84.9914 20.1635C84.8196 21.3368 84.2864 22.4698 83.3187 23.1817C82.1458 24.0754 80.4461 24.2926 79.0642 23.7454C78.0963 23.3104 77.5448 22.2482 77.4757 21.2049C77.3092 19.3798 77.4268 17.5429 77.3914 15.7126C77.3914 14.2811 77.3914 12.8496 77.3914 11.4181C76.6702 11.4181 75.949 11.4181 75.2278 11.4181C75.2278 14.509 75.2278 17.5999 75.2278 20.6908Z" fill="#64626A"/>
<path fill-rule="evenodd" clip-rule="evenodd" d="M90.7091 12.8183C92.215 11.7513 94.0445 11.151 95.8909 11.091C97.2634 11.0133 98.7362 11.2607 99.8975 12.0217C100.785 12.5162 101.325 13.5662 101.491 14.5819C101.537 16.9901 101.532 19.3994 101.527 21.8086C101.524 23.1028 101.522 24.397 101.527 25.691H99.4727V24.6001C99.4483 24.5218 99.461 24.414 99.4737 24.305C99.4961 24.1144 99.5188 23.92 99.3454 23.8728C99.2119 23.9708 99.1271 24.1011 99.0407 24.2338C98.9429 24.384 98.8432 24.5372 98.6688 24.6501C98.0423 25.2175 97.2385 25.6644 96.3674 25.8628C94.8893 26.1487 93.2571 26.0869 91.9273 25.3274C91.8298 25.256 91.7273 25.1883 91.6256 25.1211C91.3593 24.9452 91.098 24.7726 90.9454 24.5456C90.5436 24.033 90.2121 23.4688 90.0828 22.8221C89.8566 21.6762 89.9101 20.3637 90.6727 19.4183C91.0295 18.8685 91.6051 18.4414 92.2257 18.1509C93.2269 17.6993 94.3133 17.5447 95.3959 17.3907C95.8055 17.3325 96.2145 17.2743 96.6182 17.2001C97.3932 17.0521 98.3015 16.8409 98.8364 16.3274C99.4749 15.8371 99.56 14.8561 99.1871 14.1726C98.5343 13.1653 97.1972 12.9482 96.0618 12.9638C94.503 13.0264 92.89 13.4198 91.6363 14.3819L90.7091 12.8183ZM99.4016 18.9784C99.3932 18.5879 99.3848 18.1992 99.4 17.8183V17.691C99.1694 17.9241 98.888 18.0847 98.5818 18.2547C97.7647 18.5731 96.9028 18.7241 96.0403 18.8753C95.2714 19.0101 94.502 19.1449 93.7638 19.3984C93.1003 19.6169 92.4759 20.0485 92.2761 20.7461C92.0159 21.5502 92.1187 22.5451 92.6545 23.2001C93.408 24.1033 94.7037 24.2429 95.8147 24.1504C97.068 24.0532 98.2841 23.3971 98.8968 22.286C99.4509 21.2674 99.4261 20.1153 99.4016 18.9784Z" fill="#64626A"/>
<path d="M111.336 11.1454C110.2 11.2339 109.09 11.7521 108.303 12.4947C107.958 12.8749 107.635 13.3514 107.336 13.8181C107.336 13.0181 107.336 12.2181 107.336 11.4181C106.627 11.4181 105.918 11.4181 105.208 11.4181C105.208 16.1757 105.208 20.9333 105.208 25.6908C105.918 25.6908 106.627 25.6908 107.336 25.6908C107.355 22.9084 107.291 20.1227 107.38 17.3423C107.545 15.9959 108.108 14.6253 109.254 13.8363C110.276 13.0674 111.739 13.0085 112.918 13.4726C113.17 13.3437 113.068 12.9074 113.203 12.6605C113.296 12.307 113.388 11.9535 113.481 11.5999C112.838 11.2282 112.07 11.1016 111.336 11.1454Z" fill="#64626A"/>
<path fill-rule="evenodd" clip-rule="evenodd" d="M117.162 12.2363C118.192 11.5553 119.391 11.1122 120.635 11.0909C122.099 11.0011 123.652 11.3627 124.853 12.2181C124.872 12.2318 124.891 12.2455 124.91 12.2592C125.348 12.5733 125.796 12.8944 126.079 13.3309C127.305 14.8693 127.748 16.9212 127.508 18.8545H117.548C117.422 18.8897 117.271 18.8718 117.121 18.854C116.875 18.8251 116.633 18.7964 116.508 19C116.538 20.2961 116.85 21.7059 117.807 22.6268C118.947 23.9265 120.859 24.2766 122.505 23.9576C123.695 23.7497 124.77 23.093 125.508 22.1454C125.747 22.3636 125.987 22.5817 126.226 22.7999C126.465 23.0181 126.704 23.2363 126.944 23.4545C126.595 23.8834 126.236 24.234 125.8 24.5291C124.412 25.6879 122.551 26.1077 120.773 26.0087C119.437 25.9678 118.119 25.5461 117.035 24.7636C116.774 24.5805 116.481 24.3528 116.212 24.0778C115.556 23.3225 114.943 22.3803 114.654 21.3649C113.991 19.1493 114.11 16.6574 115.162 14.5818C115.551 13.9181 115.953 13.2838 116.485 12.7684C116.672 12.6068 116.875 12.4533 117.058 12.3152C117.093 12.2883 117.128 12.262 117.162 12.2363ZM124.85 15.0535C124.192 13.7904 122.818 12.9941 121.399 12.9091C120.377 12.8371 119.306 13.026 118.441 13.59C118.357 13.6747 118.25 13.7605 118.142 13.8472C117.961 13.9927 117.777 14.1409 117.69 14.2909C116.913 15.0476 116.664 16.1726 116.526 17.2181H125.362C125.347 16.4726 125.163 15.7267 124.85 15.0535Z" fill="#64626A"/>
<path fill-rule="evenodd" clip-rule="evenodd" d="M26.3758 0.52417H5.74114C2.90427 0.52417 0.581787 2.84574 0.581787 5.68352V26.3182C0.581787 29.1546 2.90427 31.4757 5.74114 31.4757H26.3758C29.2127 31.4757 31.5352 29.1546 31.5352 26.3182V5.68352C31.5352 2.84574 29.2127 0.52417 26.3758 0.52417ZM25.9069 24.2093C25.9069 25.1108 25.1685 25.847 24.266 25.847H7.8496C6.94759 25.847 6.20918 25.1108 6.20918 24.2093V7.79333C6.20918 6.89133 6.94759 6.15292 7.8496 6.15292H24.266C25.1685 6.15292 25.9069 6.89133 25.9069 7.79333V24.2093ZM19.3434 20.2209C19.8582 20.2209 20.2804 19.8002 20.2804 19.2826V12.7178C20.2804 12.202 19.8582 11.7803 19.3434 11.7803H12.7781C12.2619 11.7803 11.8411 12.202 11.8411 12.7178V19.2826C11.8411 19.8002 12.2619 20.2209 12.7781 20.2209H19.3434Z" fill="#64626A"/>
</svg>
