<svg width="177" height="40" viewBox="0 0 177 40" fill="none" xmlns="http://www.w3.org/2000/svg">
<path fill-rule="evenodd" clip-rule="evenodd" d="M43.1423 11.3555C42.7215 10.5 42.0648 9.8122 40.8102 9.50443C39.589 9.20443 38.5113 9.35887 37.7733 10.0022L35.3288 9.17332C35.0797 8.64433 34.8554 8.10412 34.6563 7.55443C34.517 7.15679 34.2383 6.8229 33.8716 6.61443C32.2719 5.70331 27.9382 3.53887 26.2595 5.74998C26.2595 5.74998 26.1715 5.84887 26.0524 6.02443L25.5292 5.84665C25.2575 4.90443 24.3637 4.1822 23.1247 3.87776C22.3621 3.69109 21.6117 3.73776 20.9895 3.96665C20.5364 4.13331 20.5152 4.6622 20.9694 4.8222L22.9209 5.50554C23.3629 5.66109 23.5966 6.14443 23.4408 6.58665L23.4386 6.59331C23.3639 6.80525 23.208 6.97894 23.0051 7.07623C22.8022 7.17353 22.569 7.18646 22.3566 7.1122L20.2437 6.48665C20.1396 6.45587 20.029 6.45388 19.9239 6.48087C19.8187 6.50787 19.7229 6.56284 19.6465 6.63994C19.5702 6.71703 19.5163 6.81335 19.4904 6.91863C19.4646 7.02392 19.4679 7.13421 19.5 7.23776C19.7806 8.17109 20.7001 8.99776 21.9291 9.29887C22.9732 9.55443 23.9941 9.3722 24.6954 8.88443L25.1541 9.03998C25.1874 10.1011 26.0079 11.3678 26.7749 11.8222C27.8745 12.474 28.8885 11.9744 30.0164 11.4187L30.017 11.4184C30.0946 11.3802 30.1727 11.3417 30.2514 11.3033C30.2514 11.3033 33.315 13.7478 31.8945 20.6822C27.9727 21.0944 26.5545 22.5044 25.1296 23.9266C24.239 23.5733 21.5428 23.4 20.1079 23.7311C20.5142 23.3255 21.1887 22.8455 22.0159 22.5255C22.1996 22.4545 22.3573 22.3297 22.4685 22.1674C22.5798 22.0052 22.6393 21.8132 22.6392 21.6166C22.6392 21.6166 24.4349 21.0433 24.4349 20.3844C24.4349 20.1957 24.2529 20.0665 23.9719 19.8669C23.2718 19.3697 21.9565 18.4355 21.3068 15.0555C21.1587 14.5055 20.9918 14.0444 20.1446 13.6478C20.1446 13.6478 19.9086 13.1522 20.2514 12.6089C20.3066 12.5214 20.359 12.4415 20.4077 12.3671L20.4078 12.367C20.6612 11.9805 20.8156 11.745 20.739 11.3844C20.6488 10.9544 20.0009 10.6 20.0009 10.6V9.87776C20.0009 9.87776 18.1987 8.55665 18.1987 6.66665C18.1987 4.89219 20.37 2.78452 21.193 1.98569L21.1932 1.98547C21.2477 1.93255 21.2963 1.88538 21.3379 1.84443C21.3577 1.82568 21.3729 1.80255 21.3822 1.77688C21.3916 1.75122 21.3946 1.72373 21.3913 1.69665C21.3869 1.67008 21.3766 1.64483 21.3612 1.62272C21.3458 1.60062 21.3258 1.58222 21.3024 1.56887C20.4385 1.03331 18.7218 0.0777588 16.0824 0.0777588C7.06692 0.0777588 4.02168 7.06156 1.91771 11.8867C1.58797 12.6429 1.28134 13.3461 0.978474 13.9611C0.952739 14.0099 0.938737 14.064 0.937578 14.1192C0.936419 14.1743 0.948133 14.229 0.971795 14.2789C2.01198 16.3522 3.35111 17.3795 4.50391 18.2639C5.82226 19.2752 6.89692 20.0996 7.00204 22.0878C7.159 25.0678 6.46102 25.1344 5.76638 25.0711C5.30996 25.0289 4.64204 24.6222 4.23683 24.3478C4.2097 24.3294 4.17748 24.32 4.14471 24.3208C4.11193 24.3216 4.08024 24.3327 4.05408 24.3524C4.02793 24.3722 4.00862 24.3996 3.99887 24.4308C3.98912 24.4621 3.98942 24.4956 3.99972 24.5266C4.27134 25.34 5.06172 27.0144 7.36495 27.0144C8.53604 27.0144 8.89449 25.9533 8.89449 24.9755V21.6066C8.89449 21.2744 8.79876 20.96 8.54717 20.7433C7.75345 20.0622 6.07251 18.4266 6.07251 16.9755C6.07251 16.3555 6.48885 16.0322 6.97198 16.0322C7.87702 16.0322 8.75534 17.3922 9.43551 19.1078C9.5947 19.5078 9.82291 19.7911 10.0322 19.93C10.0645 19.9522 10.1079 19.9511 10.1391 19.9278C10.1545 19.9167 10.1662 19.9012 10.1725 19.8833C10.1789 19.8654 10.1797 19.8461 10.1747 19.8278C9.89415 18.8322 9.80176 17.7922 9.7717 17.28C9.76588 17.18 9.73991 17.0822 9.69535 16.9925C9.65078 16.9027 9.58853 16.8229 9.51232 16.7578C8.83995 16.1844 7.01985 14.3822 7.01985 11.69C7.01985 8.0622 12.8019 8.36554 13.9685 8.46443C14.3159 9.67554 15.0406 10.1978 15.5237 10.42C15.4185 10.4588 15.3053 10.4999 15.1855 10.5434L15.1852 10.5435C13.3136 11.2233 9.82625 12.49 9.82625 14.5889C9.82625 16.9822 13.7838 16.8078 13.7838 16.8078C13.7838 16.8078 13.1548 21.5866 17.6121 23.0278C17.6121 23.0278 16.9163 23.7311 14.5218 23.7311C12.2875 23.7311 11.1967 22.7355 10.6657 21.5589C10.6547 21.5347 10.6371 21.5143 10.6147 21.5001C10.5923 21.486 10.5661 21.4788 10.5396 21.4794C10.5132 21.48 10.4874 21.4884 10.4657 21.5035C10.4439 21.5186 10.4271 21.5398 10.4174 21.5644C10.295 21.8689 10.1992 22.42 10.6222 23.1111C10.8023 23.4045 10.9966 23.6637 11.1838 23.9134C11.6794 24.5741 12.1251 25.1684 12.1251 26.1555C12.1251 27.1611 11.2234 27.7911 10.8527 28.0078C10.8407 28.0146 10.831 28.0249 10.825 28.0372C10.8189 28.0496 10.8167 28.0635 10.8186 28.0771C10.8205 28.0907 10.8265 28.1035 10.8358 28.1137C10.845 28.1239 10.857 28.1311 10.8705 28.1344C11.7487 28.3455 15.743 29.3478 18.4314 30.6233C18.4537 30.6333 18.4781 30.6311 18.4981 30.6189C18.7986 30.43 21.1253 28.9122 21.2589 26.9111C21.2589 26.9111 21.4348 25.6033 19.4778 25.3666C19.4778 25.3666 20.3249 25.0389 21.8566 25.0389C23.3828 25.0389 25.0494 26.2766 22.0482 32.4389C22.041 32.4541 22.0396 32.4714 22.0443 32.4876C22.049 32.5038 22.0595 32.5177 22.0737 32.5266C22.5346 32.8155 25.9489 34.9911 28.1329 37.1067C28.1574 37.1305 28.1868 37.1488 28.2189 37.1605C28.251 37.1721 28.2852 37.1769 28.3193 37.1743C28.3533 37.1718 28.3866 37.1621 28.4167 37.1458C28.4467 37.1296 28.4729 37.1071 28.4937 37.08C28.7752 36.7066 29.3208 35.7078 29.7227 33.2511C29.7408 33.14 29.7902 33.0363 29.8651 32.9521C29.94 32.8679 30.0373 32.8067 30.1457 32.7755C31.4481 32.4 35.9142 30.9533 37.869 28.2689C40.1712 25.1055 40.9693 24.7644 40.9693 24.7644C40.9693 24.7644 42.4767 23.9222 41.8377 21.6933C41.5581 20.712 40.268 18.3898 38.8364 15.8129L38.8364 15.8128C38.5693 15.3321 38.2973 14.8425 38.0261 14.3511C38.4245 14.6366 38.8998 14.8589 39.4297 14.99C40.4795 15.2466 41.507 15.0855 42.2439 14.6266C42.3236 14.5772 42.3876 14.5064 42.4285 14.4222C42.4694 14.338 42.4856 14.244 42.4753 14.151C42.4649 14.058 42.4283 13.9699 42.3699 13.8967C42.3115 13.8236 42.2335 13.7685 42.1449 13.7378L40.2034 13.0578C40.0919 13.0187 39.9893 12.9582 39.9012 12.8795C39.8132 12.8009 39.7416 12.7057 39.6904 12.5995C39.6392 12.4932 39.6096 12.3779 39.6031 12.2602C39.5965 12.1424 39.6133 12.0246 39.6525 11.9133L39.6558 11.9066C39.6948 11.7954 39.7552 11.693 39.834 11.6051C39.9127 11.5173 40.0079 11.4458 40.1143 11.3947C40.2206 11.3436 40.3361 11.314 40.4539 11.3074C40.5718 11.3009 40.6898 11.3176 40.8013 11.3566L42.5345 11.9633C42.6191 11.9929 42.7104 11.9981 42.7979 11.9783C42.8853 11.9584 42.9654 11.9143 43.0288 11.8511C43.159 11.7211 43.2235 11.52 43.1423 11.3555ZM15.3393 7.22555C15.3651 7.25091 15.3987 7.26694 15.4346 7.27109C15.5071 7.279 15.5794 7.28751 15.6517 7.29665C15.6913 7.30161 15.7312 7.29191 15.7641 7.26937C15.7969 7.24684 15.8203 7.21305 15.8298 7.17443C16.5089 4.37331 18.4002 2.68109 19.0091 2.19665C19.0299 2.1798 19.0462 2.15809 19.0565 2.13344C19.0669 2.10879 19.0709 2.08197 19.0685 2.05536C19.066 2.02875 19.0569 2.00318 19.042 1.98092C19.0272 1.95866 19.007 1.9404 18.9834 1.92776C17.5163 1.14887 15.3434 1.23998 15.3434 1.23998C8.24327 1.68887 4.68323 8.33331 3.53106 11.5378C2.60598 14.1066 3.89174 15.1922 4.43721 15.5211C4.46003 15.5346 4.48592 15.5421 4.51243 15.5428C4.53895 15.5435 4.56521 15.5375 4.58873 15.5252C4.61225 15.513 4.63225 15.495 4.64684 15.4728C4.66143 15.4507 4.67012 15.4253 4.6721 15.3989C4.73221 14.4211 5.11293 10.6978 7.42617 8.72554C9.07706 7.31665 11.8735 7.10998 13.776 7.15887C13.6891 4.27109 15.9311 2.46443 15.9311 2.46443C15.9311 2.46443 15.0072 5.02887 15.2921 7.13109C15.2969 7.16694 15.3135 7.20019 15.3393 7.22555ZM29.7817 10.1311C29.3264 10.0829 29.2931 9.66187 29.2624 9.27274C29.2363 8.94346 29.2121 8.63706 28.9356 8.59887C28.8275 8.58449 28.7575 8.91211 28.6864 9.24485C28.6037 9.63179 28.5195 10.0257 28.3722 9.89665C27.9465 9.52241 28.1033 8.84127 28.2171 8.3471L28.2171 8.34708C28.2479 8.2133 28.2756 8.09323 28.2877 7.99665C28.2996 7.90144 28.3188 7.80117 28.3371 7.70536C28.4061 7.34496 28.4631 7.04742 28.0762 7.31776C27.5863 7.65887 27.3248 8.37776 27.1577 8.99109C27.0438 9.411 27.1653 9.68035 27.3265 10.0378C27.3999 10.2005 27.4816 10.3815 27.5529 10.6033C27.7801 11.3133 27.357 11.07 27.357 11.07C25.0772 9.70332 26.7202 6.82887 26.7202 6.82887C27.7078 5.14109 29.1871 5.64554 29.1871 5.64554C29.4743 5.74776 29.5467 5.91554 29.5467 6.27443C29.5467 6.63331 29.6425 6.74776 30.0665 6.84776C30.4918 6.94887 30.6922 7.46998 30.6922 8.31331C30.6922 9.15776 30.1579 10.1711 29.7817 10.1311ZM31.27 9.15887C31.0863 10.0178 31.6596 10.1311 31.6596 10.1311C31.6596 10.1311 32.499 9.58443 32.499 8.89998C32.499 7.31776 31.8945 7.31776 31.8945 7.31776C31.5416 7.46998 31.4259 7.98554 31.4259 8.42998C31.4259 8.75265 31.3916 8.83812 31.3378 8.97256L31.3378 8.97258L31.3378 8.97261L31.3378 8.97266L31.3377 8.97268L31.3377 8.97278L31.3377 8.97291L31.3376 8.97294L31.3376 8.97303C31.3175 9.02319 31.2947 9.08019 31.27 9.15887ZM37.1343 22.7033C39.1815 22.7033 39.4053 21.0511 39.4053 21.0511C39.4046 20.1776 38.574 20.7367 38.0528 21.0875L38.0227 21.1078C37.5028 21.4578 37.1199 21.5322 36.9651 21.2155C36.8092 20.8989 37.0597 20.6822 37.0597 20.6822C37.4272 20.3155 37.9993 19.3122 37.9993 18.3378C37.869 12.6822 32.3643 11.5378 32.3643 11.5378C34.1587 12.9127 34.0797 14.257 34.0243 15.1994C34.0155 15.3491 34.0074 15.4887 34.0074 15.6166C33.6718 14.8404 33.2358 14.1654 32.795 13.4829C32.7297 13.3818 32.6643 13.2806 32.5991 13.1789C33.3037 19.8066 35.0894 22.7033 37.1343 22.7033ZM37.0397 13.09C38.508 14.6066 39.9263 14.2478 39.9263 14.2478C38.556 13.97 37.7556 12.3233 37.7556 12.3233C37.6086 13.1544 37.0397 13.09 37.0397 13.09ZM31.6595 24.2C31.6595 24.2 30.1702 27.0144 28.1464 27.0144C27.3192 27.0144 26.7292 26.4244 26.7292 25.6078C26.7292 24.7911 27.7311 21.8666 32.0849 21.8666C33.1257 21.8666 33.9406 22.0567 33.9406 22.6844C33.9406 23.3122 32.9532 24.3922 31.6595 24.2ZM37.0342 11.1089L33.2826 9.97554C32.8586 10.84 33.5933 11.2144 33.5933 11.2144C34.5026 11.4964 35.4165 11.7627 36.3351 12.0133C37.7233 12.3889 37.0342 11.1089 37.0342 11.1089ZM14.8368 15.6166C12.1763 16.09 11.2345 15.2744 11.2345 14.5866C11.2345 12.4866 17.2803 10.86 18.9823 10.8344C19.1733 11.1228 19.0708 11.223 18.8997 11.3901C18.7636 11.523 18.5842 11.6983 18.4748 12.0444C18.2288 12.8255 17.6277 13.0733 16.7471 13.1789C15.8621 13.3033 15.0333 13.6846 14.3637 14.2755C13.8238 14.7711 14.3637 14.9978 15.4614 14.6822C16.0991 14.4988 16.4041 14.5868 16.6385 14.6544C16.7988 14.7007 16.9261 14.7375 17.1044 14.6711C17.3697 14.5726 17.3327 14.3414 17.3024 14.1521C17.2825 14.0275 17.2655 13.921 17.3393 13.8822C17.6231 13.7355 18.2099 14.1355 18.2099 14.1355L19.7383 15.1066C19.7383 15.1066 18.0205 15.9789 17.9004 16.0466C17.7791 16.1133 17.5742 16.2266 17.5742 16.4611C17.5742 16.7655 18.2109 16.7295 18.6212 16.7063L18.6213 16.7063C18.7127 16.7011 18.7928 16.6966 18.8521 16.6966C19.1795 16.6966 19.2295 17.23 19.2295 17.23C18.7285 17.8078 17.4284 17.8122 17.4284 17.8122C17.68 18.3454 18.9516 18.3395 19.4966 18.3369H19.4967H19.4968H19.497H19.4971H19.4972C19.5788 18.3365 19.644 18.3362 19.687 18.3378C19.966 18.3472 20.0341 18.6792 20.1489 19.2386C20.1702 19.3422 20.1931 19.4536 20.2192 19.5722C20.3862 20.3311 21.4482 20.6544 21.4482 20.6544C21.791 21.78 20.4352 22.1055 19.5378 22.1055C14.2824 22.1055 14.8368 15.6166 14.8368 15.6166ZM20.7134 16.09C20.7134 16.09 21.3702 18.9566 22.6882 19.97C22.6882 19.97 22.6381 20.2589 22.2229 20.2589C21.8076 20.2589 21.024 19.5955 20.7134 18.0466C20.4028 16.4978 20.7134 16.09 20.7134 16.09ZM20.2892 7.5522C20.2892 7.5522 21.024 8.96443 22.6882 8.96443C24.3536 8.96443 24.8512 7.88887 24.8512 7.88887C22.1984 9.35665 20.2892 7.5522 20.2892 7.5522ZM4.27504 35.9345C4.2748 35.9344 4.27468 35.9344 4.27468 35.9344H4.27579C4.27579 35.9344 4.27554 35.9344 4.27504 35.9345ZM4.27504 35.9345C4.25469 35.9387 3.82495 36.0329 3.82495 36.6111C3.82495 37.2044 4.86246 38.4166 5.63057 38.4166C6.39868 38.4166 6.53449 37.7389 6.53449 37.7389C6.53449 36.8433 4.30766 35.9476 4.27504 35.9345Z" fill="#64626A"/>
<path fill-rule="evenodd" clip-rule="evenodd" d="M17.5616 12.1439L17.5622 12.1445V12.1434L17.5616 12.1439ZM17.5616 12.1439C16.8597 11.4437 14.8724 11.978 13.8041 12.8834C12.7053 13.8122 13.1417 14.4356 13.1417 14.4356C14.0345 13.1789 15.4316 12.6656 16.2186 12.5656C17.1645 12.4462 17.5444 12.1573 17.5616 12.1439ZM1.86435 24.7534C1.87863 24.7717 1.88869 24.7929 1.89381 24.8156C2.48585 27.4697 5.61546 28.4388 9.53307 29.652C14.2783 31.1214 20.1796 32.9488 24.1279 38.5622C24.1683 38.6193 24.1935 38.6857 24.2011 38.7551C24.2087 38.8246 24.1984 38.8948 24.1712 38.9592C24.144 39.0236 24.1008 39.08 24.0457 39.1231C23.9906 39.1662 23.9254 39.1946 23.8563 39.2056C22.6708 39.3956 21.3304 39.4667 19.9879 39.4922C19.484 39.5013 18.9845 39.396 18.5273 39.1842C18.0701 38.9725 17.667 38.6599 17.3485 38.27C14.2883 34.5235 9.88639 32.5929 6.34984 31.0419C3.04991 29.5946 0.503418 28.4777 0.503418 26.5245C0.503418 25.4278 1.23591 24.8989 1.67674 24.7056C1.69807 24.6963 1.72118 24.6919 1.74442 24.6926C1.76765 24.6933 1.79045 24.6991 1.81118 24.7096C1.83191 24.7202 1.85007 24.7351 1.86435 24.7534ZM16.773 16.9045C16.773 16.9045 16.0004 17.11 16.2075 18.1745C16.4156 19.2478 17.2906 19.2756 17.2906 19.2756C16.5303 18.3922 16.773 16.9045 16.773 16.9045ZM6.40165 32.9463C5.42655 32.5069 4.5306 32.1031 3.84638 31.7156C2.78883 31.1167 2.76434 31.9789 2.76434 31.9789C2.76434 32.9237 3.97353 33.7349 5.35074 34.6587C6.36563 35.3395 7.47175 36.0815 8.25246 36.9834C9.50593 38.4311 9.98015 38.8589 11.7446 38.8589C14.0734 38.8589 13.6527 38.1556 13.6527 38.1556C12.7343 35.7999 9.23406 34.2226 6.40165 32.9463ZM63.1993 16.7222C62.4646 16.0956 61.525 15.6778 60.5454 15.6778C59.8107 15.6778 58.8311 16.1167 58.8311 16.9945C58.8311 17.9111 59.9053 18.2674 60.5991 18.4975L60.6066 18.5L61.6275 18.8134C63.7704 19.4622 65.4235 20.57 65.4235 23.1222C65.4235 24.69 65.0561 26.3 63.8316 27.3667C62.6282 28.4111 61.0152 28.8511 59.4634 28.8511C57.5242 28.8511 55.6261 28.1811 54.0543 27.0522L55.7686 23.7489C56.7694 24.6489 57.9539 25.38 59.3209 25.38C60.2604 25.38 61.2601 24.8989 61.2601 23.7911C61.2601 22.6957 59.8368 22.2836 58.9604 22.0298L58.8311 21.9922C56.3208 21.2611 54.6677 20.5911 54.6677 17.5389C54.6677 14.3389 56.8919 12.2478 59.9743 12.2478C61.525 12.2478 63.4242 12.75 64.7912 13.5445L63.1993 16.7222ZM72.1551 19.8178C73.1547 19.8178 74.0731 20.4378 74.2568 21.5111V21.5122H69.9509C70.1735 20.4378 71.073 19.8178 72.1551 19.8178ZM77.6487 23.66H69.8897C69.8897 25.2111 70.6845 26.06 72.2163 26.06C73.0122 26.06 73.5833 25.8078 73.9918 25.0922H77.5641C76.9719 27.7178 74.6253 28.7811 72.2363 28.7811C68.7664 28.7811 66.1738 26.7778 66.1738 23.0756C66.1738 19.5 68.5338 17.3478 71.9413 17.3478C75.5748 17.3478 77.6487 19.65 77.6487 23.31V23.66ZM82.3131 19.6022H82.1917V17.6934H78.5805V28.4334H82.1917V24.1045C82.1917 22.2634 82.7272 20.8634 84.7888 20.8634C85.361 20.8634 85.803 20.9256 86.3852 21.2189V17.5734H85.7017C84.2523 17.5734 83.0277 18.0511 82.3131 19.6022Z" fill="#64626A"/>
<path fill-rule="evenodd" clip-rule="evenodd" d="M101.358 15.7191C102.5 15.7191 103.439 14.7579 103.439 13.5868V13.5857C103.439 12.4157 102.5 11.4524 101.358 11.4524C100.213 11.4524 99.2759 12.4157 99.2759 13.5857C99.2759 14.7579 100.213 15.7191 101.358 15.7191ZM92.4375 23.1924L94.9277 17.6924H99.0922L93.6219 28.4335H91.2541L85.7627 17.6924H89.9261L92.4375 23.1924ZM99.434 28.4335H103.279V17.6924H99.434V28.4335ZM112.716 21.1979C112.132 20.7791 111.506 20.4457 110.792 20.4457C109.363 20.4457 108.238 21.5746 108.238 23.0591C108.238 24.6068 109.323 25.6935 110.854 25.6935C111.508 25.6935 112.132 25.4224 112.716 24.9613V28.1813C111.783 28.6002 110.996 28.788 110.097 28.788C106.995 28.788 104.4 26.4257 104.4 23.1846C104.4 19.7346 106.976 17.3513 110.262 17.3513C111.119 17.3513 112.017 17.5591 112.716 17.9779V21.1979ZM119.707 19.8179C120.707 19.8179 121.626 20.438 121.809 21.5113V21.5124H117.502C117.726 20.4379 118.625 19.8179 119.707 19.8179ZM125.18 23.6602H117.441C117.441 25.2113 118.237 26.0602 119.768 26.0602C120.564 26.0602 121.136 25.808 121.543 25.0924H125.117C124.525 27.718 122.177 28.7813 119.788 28.7813C116.318 28.7813 113.725 26.778 113.725 23.0757C113.725 19.5002 116.074 17.3479 119.484 17.3479C123.116 17.3479 125.18 19.6502 125.18 23.3102V23.6602ZM128.676 28.4335H132.52V16.1413H135.898V12.6802H125.297V16.1413H128.676V28.4335ZM136.713 28.4335H140.442V17.6924H136.713V28.4335ZM138.668 15.7191C139.811 15.7191 140.75 14.7579 140.75 13.5868V13.5857C140.75 12.4157 139.811 11.4524 138.668 11.4524C137.525 11.4524 136.586 12.4157 136.586 13.5857C136.586 14.7579 137.525 15.7191 138.668 15.7191ZM146.499 28.4335H142.772V20.7957H141.607V17.6935H142.772V14.4713H146.499V17.6935H148.597V20.7957H146.499V28.4335ZM154.773 25.4846C153.261 25.4846 152.384 24.4391 152.384 23.0802C152.384 21.7624 153.261 20.6546 154.773 20.6546C156.282 20.6546 157.16 21.7624 157.16 23.0802C157.16 24.4391 156.282 25.4846 154.773 25.4846ZM160.713 28.4335H156.983V27.263C156.326 28.3213 155.049 28.788 153.833 28.788C150.731 28.788 148.545 26.1324 148.545 23.0591C148.545 19.9846 150.663 17.3502 153.766 17.3502C154.971 17.3502 156.169 17.8102 156.983 18.7513V17.6935H160.713V28.4335ZM165.727 19.1246H165.606V17.6935H161.877V28.4335H165.605V22.8713C165.605 21.5324 166.034 20.3824 167.544 20.3824C169.247 20.3824 169.229 21.9278 169.218 22.9696L169.218 22.9708C169.217 23.0526 169.216 23.1312 169.216 23.2057V28.4335H172.945V21.8046C172.945 19.1691 171.856 17.3691 169.039 17.3691C167.59 17.3691 166.584 17.8124 165.727 19.1246ZM174.925 17.0957V17.5735H175.278C175.294 17.5735 175.31 17.5736 175.326 17.5739L175.362 17.5744C175.595 17.578 175.862 17.5822 175.862 17.3557C175.862 17.1202 175.669 17.0957 175.45 17.0957H174.925ZM175.801 18.648H176.102L175.64 17.7757C175.883 17.7668 176.126 17.6202 176.126 17.2535C176.126 16.8602 175.83 16.7379 175.499 16.7379H174.692V18.648H174.925V17.8124H175.335L175.801 18.648ZM173.999 17.7002C173.999 18.4813 174.618 19.0891 175.359 19.0891C176.102 19.0891 176.721 18.4813 176.721 17.7002C176.721 16.9146 176.102 16.3113 175.359 16.3113C174.618 16.3113 173.999 16.9146 173.999 17.7002ZM175.359 16.0413C174.453 16.0413 173.736 16.7757 173.736 17.7002C173.736 18.6246 174.453 19.3602 175.359 19.3602C176.266 19.3602 176.984 18.6246 176.984 17.7002C176.984 16.7757 176.266 16.0413 175.359 16.0413Z" fill="#64626A"/>
</svg>
